<svg aria-hidden="true" style="width:0;height:0;position:absolute;overflow:hidden" xmlns="http://www.w3.org/2000/svg"><defs><symbol id="arrow-prev" viewBox="0 0 32 32"><path d="M17.258 29.701a1.778 1.778 0 0 1-2.514 0L2.3 17.257a1.778 1.778 0 0 1 0-2.514L14.744 2.299a1.778 1.778 0 0 1 2.514 2.514l-9.41 9.41h20.597a1.778 1.778 0 1 1 0 3.556H7.848l9.41 9.41c.694.694.694 1.82 0 2.514z"/></symbol><symbol id="arrow-next" viewBox="0 0 32 32"><path d="M14.743 2.298a1.778 1.778 0 0 1 2.514 0l12.445 12.444c.694.694.694 1.82 0 2.514L17.257 29.7a1.778 1.778 0 0 1-2.514-2.514l9.41-9.41H3.556a1.778 1.778 0 1 1 0-3.556h20.597l-9.41-9.41a1.778 1.778 0 0 1 0-2.514z"/></symbol><symbol id="dotte" viewBox="0 0 107 32"><path d="M8.375 13.833c0-2.333.792-4.292 2.375-5.875 1.583-1.625 3.729-2.438 6.438-2.438 2.75 0 4.896.813 6.437 2.438C25.208 9.541 26 11.5 26 13.833s-.792 4.292-2.375 5.875c-1.542 1.583-3.687 2.375-6.437 2.375-2.708 0-4.854-.792-6.438-2.375s-2.375-3.542-2.375-5.875zM44 13.833c0-2.333.792-4.292 2.375-5.875 1.583-1.625 3.729-2.438 6.437-2.438 2.75 0 4.896.813 6.438 2.438 1.583 1.583 2.375 3.542 2.375 5.875s-.792 4.292-2.375 5.875c-1.542 1.583-3.688 2.375-6.438 2.375-2.708 0-4.854-.792-6.437-2.375S44 16.166 44 13.833zM79.625 13.833c0-2.333.792-4.292 2.375-5.875 1.583-1.625 3.729-2.438 6.438-2.438 2.75 0 4.896.813 6.437 2.438 1.583 1.583 2.375 3.542 2.375 5.875s-.792 4.292-2.375 5.875c-1.542 1.583-3.687 2.375-6.437 2.375-2.708 0-4.854-.792-6.438-2.375s-2.375-3.542-2.375-5.875z"/></symbol><symbol id="search" viewBox="0 0 32 32"><path fill="none" stroke="#fff" style="stroke:var(--color1,#fff)" stroke-linejoin="round" stroke-linecap="round" stroke-width="2.667" d="M14.667 25.333c5.891 0 10.667-4.776 10.667-10.667S20.558 3.999 14.667 3.999 4 8.775 4 14.666s4.776 10.667 10.667 10.667zM28 28.001l-5.8-5.8"/></symbol></defs></svg>