<svg aria-hidden="true" style="position:absolute" xmlns="http://www.w3.org/2000/svg"><defs><symbol id="icon-MoonThem" viewBox="0 0 32 32"><path d="M16.81 31.664C7.719 31.664.32 24.266.32 15.171.32 8.873 3.827 3.216 9.469.406a.66.66 0 0 1 .886.88 15.011 15.011 0 0 0-1.552 6.685c0 8.365 6.806 15.171 15.171 15.171 2.368 0 4.64-.534 6.752-1.584a.66.66 0 0 1 .758.122.652.652 0 0 1 .125.758c-2.794 5.69-8.464 9.226-14.8 9.226z"/></symbol><symbol id="icon-SunThem" viewBox="0 0 32 32"><path d="M14.789 3.659c-.642 1.828-1.154 3.347-1.137 3.364s.268-.033.561-.106c.723-.179 2.925-.179 3.64 0 .276.065.504.106.504.073 0-.106-2.316-6.67-2.356-6.67-.024 0-.569 1.503-1.211 3.339zM4.886 4.926c.024.033.707 1.47 1.527 3.193s1.511 3.16 1.544 3.193c.033.033.22-.187.414-.487.455-.707 1.739-1.999 2.445-2.462.3-.195.536-.365.528-.374s-1.365-.666-3.022-1.454C6.673 5.739 5.21 5.04 5.08 4.975c-.122-.065-.211-.089-.195-.049zm19.035 1.512c-1.698.812-3.104 1.503-3.128 1.536-.024.024.195.211.487.398.683.455 1.99 1.763 2.397 2.405.179.284.341.512.366.512s.455-.853.951-1.893c.496-1.032 1.178-2.462 1.519-3.169.333-.699.585-1.276.552-1.276s-1.446.674-3.144 1.487zM14.643 8.16c-2.437.439-4.606 2.064-5.711 4.265-1.308 2.624-1.113 5.589.528 8.084.422.642 1.414 1.633 2.064 2.072.683.455 1.722.942 2.502 1.154.536.154.845.179 2.055.179 1.316 0 1.479-.016 2.145-.228 5.46-1.666 7.54-7.994 4.119-12.544-1.739-2.299-4.834-3.502-7.702-2.982zM3.594 14.806C1.79 15.44.32 15.976.32 16c0 .057 6.662 2.38 6.703 2.34.024-.016-.024-.309-.098-.642-.171-.804-.171-2.584.008-3.388.154-.715.154-.666.033-.658-.057 0-1.576.52-3.372 1.154zm21.457-.951c.276 1.097.325 2.803.106 3.851-.065.333-.114.617-.106.626.032.033 6.629-2.291 6.629-2.332 0-.024-1.454-.552-3.234-1.17a995.584 995.584 0 0 1-3.339-1.17c-.089-.033-.097.008-.057.195zM6.429 23.856c-.853 1.779-1.544 3.242-1.527 3.25.008.016 1.17-.528 2.575-1.202s2.86-1.373 3.234-1.544l.674-.317-.512-.341c-.691-.447-2.153-1.925-2.543-2.567-.179-.276-.325-.504-.333-.504s-.715 1.454-1.568 3.225zm17.175-2.502c-.463.691-1.812 1.998-2.437 2.372-.244.155-.455.3-.455.325 0 .041 6.264 3.079 6.361 3.079.024 0-.642-1.422-1.479-3.169-.828-1.739-1.535-3.169-1.56-3.169s-.219.252-.43.561zm-9.96 3.648c0 .114 2.316 6.678 2.356 6.678.049 0 2.364-6.597 2.332-6.629-.008-.016-.349.032-.748.106-.877.146-2.844.106-3.51-.081-.236-.073-.431-.098-.431-.073z"/></symbol></defs></svg>