<svg aria-hidden="true" style="position: absolute; width: 0; height: 0; overflow: hidden;" version="1.1" xmlns="http://www.w3.org/2000/svg" xmlns:xlink="http://www.w3.org/1999/xlink">
<defs>
<symbol id="arrow-prev" viewBox="0 0 32 32">
<path d="M17.258 29.701c-0.694 0.694-1.82 0.694-2.514 0l-12.444-12.444c-0.694-0.694-0.694-1.82 0-2.514l12.444-12.444c0.694-0.694 1.82-0.694 2.514 0s0.694 1.82 0 2.514l-9.41 9.41h20.597c0.982 0 1.778 0.796 1.778 1.778s-0.796 1.778-1.778 1.778h-20.597l9.41 9.41c0.694 0.694 0.694 1.82 0 2.514z"></path>
</symbol>
<symbol id="arrow-next" viewBox="0 0 32 32">
<path d="M14.743 2.298c0.694-0.694 1.82-0.694 2.514 0l12.445 12.444c0.694 0.694 0.694 1.82 0 2.514l-12.445 12.444c-0.694 0.694-1.82 0.694-2.514 0s-0.694-1.82 0-2.514l9.41-9.41h-20.597c-0.982 0-1.778-0.796-1.778-1.778s0.796-1.778 1.778-1.778h20.597l-9.41-9.41c-0.694-0.694-0.694-1.82 0-2.514z"></path>
</symbol>
<symbol id="dotte" viewBox="0 0 107 32">
<path d="M8.375 13.833c0-2.333 0.792-4.292 2.375-5.875 1.583-1.625 3.729-2.438 6.438-2.438 2.75 0 4.896 0.813 6.437 2.438 1.583 1.583 2.375 3.542 2.375 5.875s-0.792 4.292-2.375 5.875c-1.542 1.583-3.687 2.375-6.437 2.375-2.708 0-4.854-0.792-6.438-2.375s-2.375-3.542-2.375-5.875z"></path>
<path d="M44 13.833c0-2.333 0.792-4.292 2.375-5.875 1.583-1.625 3.729-2.438 6.437-2.438 2.75 0 4.896 0.813 6.438 2.438 1.583 1.583 2.375 3.542 2.375 5.875s-0.792 4.292-2.375 5.875c-1.542 1.583-3.688 2.375-6.438 2.375-2.708 0-4.854-0.792-6.437-2.375s-2.375-3.542-2.375-5.875z"></path>
<path d="M79.625 13.833c0-2.333 0.792-4.292 2.375-5.875 1.583-1.625 3.729-2.438 6.438-2.438 2.75 0 4.896 0.813 6.437 2.438 1.583 1.583 2.375 3.542 2.375 5.875s-0.792 4.292-2.375 5.875c-1.542 1.583-3.687 2.375-6.437 2.375-2.708 0-4.854-0.792-6.438-2.375s-2.375-3.542-2.375-5.875z"></path>
</symbol>
<symbol id="search" viewBox="0 0 32 32">
<path fill="none" stroke="#fff" style="stroke: var(--color1, #fff)" stroke-linejoin="round" stroke-linecap="round" stroke-miterlimit="4" stroke-width="2.6667" d="M14.667 25.333c5.891 0 10.667-4.776 10.667-10.667s-4.776-10.667-10.667-10.667c-5.891 0-10.667 4.776-10.667 10.667s4.776 10.667 10.667 10.667z"></path>
<path fill="none" stroke="#fff" style="stroke: var(--color1, #fff)" stroke-linejoin="round" stroke-linecap="round" stroke-miterlimit="4" stroke-width="2.6667" d="M28 28.001l-5.8-5.8"></path>
</symbol>
</defs>
</svg>
