<svg aria-hidden="true" style="position: absolute;" version="1.1" xmlns="http://www.w3.org/2000/svg" xmlns:xlink="http://www.w3.org/1999/xlink">
<defs>
<symbol id="icon-MoonThem" viewBox="0 0 32 32">
<path fill="#444444" d="M16.81 31.664c-9.091 0-16.49-7.398-16.49-16.493 0-6.298 3.507-11.955 9.149-14.765 0.253-0.125 0.56-0.077 0.758 0.122s0.253 0.506 0.128 0.758c-1.030 2.093-1.552 4.342-1.552 6.685 0 8.365 6.806 15.171 15.171 15.171 2.368 0 4.64-0.534 6.752-1.584 0.253-0.125 0.56-0.077 0.758 0.122 0.202 0.202 0.253 0.506 0.125 0.758-2.794 5.69-8.464 9.226-14.8 9.226z"></path>
</symbol>
<symbol id="icon-SunThem" viewBox="0 0 32 32">
<path fill="#444444" d="M14.789 3.659c-0.642 1.828-1.154 3.347-1.137 3.364s0.268-0.033 0.561-0.106c0.723-0.179 2.925-0.179 3.64 0 0.276 0.065 0.504 0.106 0.504 0.073 0-0.106-2.316-6.67-2.356-6.67-0.024 0-0.569 1.503-1.211 3.339zM4.886 4.926c0.024 0.033 0.707 1.47 1.527 3.193s1.511 3.16 1.544 3.193c0.033 0.033 0.22-0.187 0.414-0.487 0.455-0.707 1.739-1.999 2.445-2.462 0.3-0.195 0.536-0.365 0.528-0.374s-1.365-0.666-3.022-1.454c-1.649-0.796-3.112-1.495-3.242-1.56-0.122-0.065-0.211-0.089-0.195-0.049zM23.921 6.438c-1.698 0.812-3.104 1.503-3.128 1.536-0.024 0.024 0.195 0.211 0.487 0.398 0.683 0.455 1.99 1.763 2.397 2.405 0.179 0.284 0.341 0.512 0.366 0.512s0.455-0.853 0.951-1.893c0.496-1.032 1.178-2.462 1.519-3.169 0.333-0.699 0.585-1.276 0.552-1.276s-1.446 0.674-3.144 1.487zM14.643 8.16c-2.437 0.439-4.606 2.064-5.711 4.265-1.308 2.624-1.113 5.589 0.528 8.084 0.422 0.642 1.414 1.633 2.064 2.072 0.683 0.455 1.722 0.942 2.502 1.154 0.536 0.154 0.845 0.179 2.055 0.179 1.316 0 1.479-0.016 2.145-0.228 5.46-1.666 7.54-7.994 4.119-12.544-1.739-2.299-4.834-3.502-7.702-2.982zM3.594 14.806c-1.804 0.634-3.274 1.17-3.274 1.194 0 0.057 6.662 2.38 6.703 2.34 0.024-0.016-0.024-0.309-0.098-0.642-0.171-0.804-0.171-2.584 0.008-3.388 0.154-0.715 0.154-0.666 0.033-0.658-0.057 0-1.576 0.52-3.372 1.154zM25.051 13.855c0.276 1.097 0.325 2.803 0.106 3.851-0.065 0.333-0.114 0.617-0.106 0.626 0.032 0.033 6.629-2.291 6.629-2.332 0-0.024-1.454-0.552-3.234-1.17-1.771-0.618-3.274-1.146-3.339-1.17-0.089-0.033-0.097 0.008-0.057 0.195zM6.429 23.856c-0.853 1.779-1.544 3.242-1.527 3.25 0.008 0.016 1.17-0.528 2.575-1.202s2.86-1.373 3.234-1.544l0.674-0.317-0.512-0.341c-0.691-0.447-2.153-1.925-2.543-2.567-0.179-0.276-0.325-0.504-0.333-0.504s-0.715 1.454-1.568 3.225zM23.604 21.354c-0.463 0.691-1.812 1.998-2.437 2.372-0.244 0.155-0.455 0.3-0.455 0.325 0 0.041 6.264 3.079 6.361 3.079 0.024 0-0.642-1.422-1.479-3.169-0.828-1.739-1.535-3.169-1.56-3.169s-0.219 0.252-0.43 0.561zM13.644 25.002c0 0.114 2.316 6.678 2.356 6.678 0.049 0 2.364-6.597 2.332-6.629-0.008-0.016-0.349 0.032-0.748 0.106-0.877 0.146-2.844 0.106-3.51-0.081-0.236-0.073-0.431-0.098-0.431-0.073z"></path>
</symbol>
</defs>
</svg>
