<svg width="17" height="18" viewBox="0 0 17 18" fill="none" xmlns="http://www.w3.org/2000/svg">
<path fill-rule="evenodd" clip-rule="evenodd" d="M8.47427 0.955078C3.82488 0.955078 0.0537109 4.72625 0.0537109 9.37563C0.0537109 13.0951 2.48172 16.2464 5.78795 17.3829C6.20123 17.4346 6.35621 17.1763 6.35621 16.9696C6.35621 16.763 6.35621 16.2464 6.35621 15.5232C4.03152 16.0398 3.51492 14.3866 3.51492 14.3866C3.1533 13.4051 2.58504 13.1468 2.58504 13.1468C1.81015 12.6302 2.6367 12.6302 2.6367 12.6302C3.46326 12.6819 3.9282 13.5084 3.9282 13.5084C4.7031 14.7999 5.89127 14.4383 6.35621 14.2317C6.40787 13.6634 6.66617 13.3018 6.87281 13.0951C5.01306 12.8885 3.04998 12.1653 3.04998 8.9107C3.04998 7.98082 3.35994 7.25758 3.9282 6.63766C3.87654 6.48268 3.56658 5.60447 4.03152 4.46795C4.03152 4.46795 4.75476 4.26131 6.35621 5.34617C7.02779 5.13953 7.75103 5.08787 8.47427 5.08787C9.1975 5.08787 9.92074 5.19119 10.5923 5.34617C12.1938 4.26131 12.917 4.46795 12.917 4.46795C13.382 5.60447 13.072 6.48268 13.0203 6.68932C13.5369 7.25758 13.8985 8.03248 13.8985 8.96236C13.8985 12.2169 11.9355 12.8885 10.0757 13.0951C10.3857 13.3534 10.644 13.87 10.644 14.6449C10.644 15.7815 10.644 16.6597 10.644 16.9696C10.644 17.1763 10.799 17.4346 11.2122 17.3829C14.5701 16.2464 16.9465 13.0951 16.9465 9.37563C16.8948 4.72625 13.1237 0.955078 8.47427 0.955078Z" fill="#8C8C8C"/>
</svg>
