<svg width="17" height="18" viewBox="0 0 17 18" fill="none" xmlns="http://www.w3.org/2000/svg">
<path fill-rule="evenodd" clip-rule="evenodd" d="M16.7775 9.36415C16.7775 8.76522 16.7237 8.18933 16.6239 7.63647H8.66895V10.9037H13.2146C13.0188 11.9595 12.4238 12.854 11.5292 13.453V15.5723H14.2589C15.8561 14.1018 16.7775 11.9365 16.7775 9.36415Z" fill="#8C8C8C"/>
<path fill-rule="evenodd" clip-rule="evenodd" d="M8.66862 17.6184C10.9491 17.6184 12.8611 16.8621 14.2586 15.5721L11.5289 13.4528C10.7725 13.9596 9.80504 14.2591 8.66862 14.2591C6.46871 14.2591 4.60667 12.7733 3.94247 10.7769H1.12061V12.9652C2.51042 15.7257 5.36684 17.6184 8.66862 17.6184Z" fill="#8C8C8C"/>
<path fill-rule="evenodd" clip-rule="evenodd" d="M3.94267 10.7769C3.77374 10.2701 3.67776 9.7288 3.67776 9.17211C3.67776 8.61541 3.77374 8.07408 3.94267 7.56729V5.37891H1.1208C0.54875 6.51917 0.222412 7.80917 0.222412 9.17211C0.222412 10.5351 0.54875 11.825 1.1208 12.9653L3.94267 10.7769Z" fill="#8C8C8C"/>
<path fill-rule="evenodd" clip-rule="evenodd" d="M8.66862 4.0852C9.9087 4.0852 11.0221 4.51135 11.8974 5.34832L14.32 2.92573C12.8573 1.56279 10.9453 0.72583 8.66862 0.72583C5.36684 0.72583 2.51042 2.61859 1.12061 5.37903L3.94247 7.56742C4.60667 5.57099 6.46871 4.0852 8.66862 4.0852Z" fill="#8C8C8C"/>
</svg>
