<svg width="13" height="13" viewBox="0 0 13 13" fill="none" xmlns="http://www.w3.org/2000/svg">
<path d="M12.8346 7.536V12.1948H10.1075V7.82007C10.1075 6.7406 9.70984 6.00202 8.74399 6.00202C8.00541 6.00202 7.55089 6.51334 7.38045 6.96786C7.32363 7.1383 7.26682 7.36556 7.26682 7.64963V12.1948H4.53974C4.53974 12.1948 4.59655 4.80892 4.53974 4.07033H7.26682V5.20662C7.60771 4.63847 8.28948 3.84307 9.70983 3.84307C11.4711 3.84307 12.8346 5.03617 12.8346 7.536ZM1.69902 0.150146C0.789994 0.150146 0.165039 0.775103 0.165039 1.5705C0.165039 2.3659 0.733181 2.99086 1.64221 2.99086C2.60805 2.99086 3.17619 2.3659 3.17619 1.5705C3.23301 0.718289 2.66487 0.150146 1.69902 0.150146ZM0.335481 12.1948H3.06257V4.07033H0.335481V12.1948Z" fill="#8C8C8C"/>
</svg>
