<svg aria-hidden="true" style="position: absolute; width: 0; height: 0; overflow: hidden;" version="1.1" xmlns="http://www.w3.org/2000/svg" xmlns:xlink="http://www.w3.org/1999/xlink">
<defs>
<symbol id="githab" viewBox="0 0 30 32">
<path fill="#8c8c8c" style="fill: var(--color1, #8c8c8c)" d="M15.065 1.698c-8.266 0-14.97 6.704-14.97 14.97 0 6.612 4.316 12.215 10.194 14.235 0.735 0.092 1.010-0.367 1.010-0.735s0-1.286 0-2.571c-4.133 0.918-5.051-2.021-5.051-2.021-0.643-1.745-1.653-2.204-1.653-2.204-1.378-0.918 0.092-0.918 0.092-0.918 1.469 0.092 2.296 1.561 2.296 1.561 1.378 2.296 3.49 1.653 4.316 1.286 0.092-1.010 0.551-1.653 0.918-2.021-3.306-0.367-6.796-1.653-6.796-7.439 0-1.653 0.551-2.939 1.561-4.041-0.092-0.276-0.643-1.837 0.184-3.857 0 0 1.286-0.367 4.133 1.561 1.194-0.367 2.48-0.459 3.765-0.459s2.572 0.184 3.765 0.459c2.847-1.929 4.133-1.561 4.133-1.561 0.827 2.020 0.276 3.582 0.184 3.949 0.918 1.010 1.561 2.388 1.561 4.041 0 5.786-3.49 6.98-6.796 7.347 0.551 0.459 1.010 1.378 1.010 2.755 0 2.021 0 3.582 0 4.133 0 0.367 0.276 0.827 1.010 0.735 5.97-2.020 10.194-7.623 10.194-14.235-0.092-8.266-6.796-14.97-15.062-14.97z"></path>
</symbol>
<symbol id="google" viewBox="0 0 30 32">
<path fill="#8c8c8c" style="fill: var(--color1, #8c8c8c)" d="M29.827 16.647c0-1.065-0.096-2.089-0.273-3.071h-14.142v5.808h8.081c-0.348 1.877-1.406 3.467-2.996 4.532v3.768h4.853c2.839-2.614 4.477-6.464 4.477-11.037z"></path>
<path fill="#8c8c8c" style="fill: var(--color1, #8c8c8c)" d="M15.411 31.322c4.054 0 7.453-1.345 9.938-3.638l-4.853-3.768c-1.345 0.901-3.065 1.433-5.085 1.433-3.911 0-7.221-2.641-8.402-6.191h-5.017v3.89c2.471 4.908 7.549 8.272 13.419 8.272z"></path>
<path fill="#8c8c8c" style="fill: var(--color1, #8c8c8c)" d="M7.009 19.159c-0.3-0.901-0.471-1.863-0.471-2.853s0.171-1.952 0.471-2.853v-3.89h-5.017c-1.017 2.027-1.597 4.32-1.597 6.743s0.58 4.716 1.597 6.743l5.017-3.89z"></path>
<path fill="#8c8c8c" style="fill: var(--color1, #8c8c8c)" d="M15.411 7.263c2.205 0 4.184 0.758 5.74 2.246l4.307-4.307c-2.6-2.423-5.999-3.911-10.047-3.911-5.87 0-10.948 3.365-13.419 8.272l5.017 3.89c1.181-3.549 4.491-6.191 8.402-6.191z"></path>
</symbol>
<symbol id="linked" viewBox="0 0 32 32">
<path fill="#8c8c8c" style="fill: var(--color1, #8c8c8c)" d="M31.593 18.55v11.468h-6.713v-10.769c0-2.657-0.979-4.475-3.356-4.475-1.818 0-2.937 1.259-3.356 2.377-0.14 0.42-0.28 0.979-0.28 1.678v11.188h-6.713c0 0 0.14-18.181 0-19.999h6.713v2.797c0.839-1.399 2.517-3.356 6.014-3.356 4.335 0 7.692 2.937 7.692 9.090zM4.182 0.37c-2.238 0-3.776 1.538-3.776 3.496s1.399 3.496 3.636 3.496c2.377 0 3.776-1.538 3.776-3.496 0.14-2.098-1.259-3.496-3.636-3.496zM0.826 30.018h6.713v-19.999h-6.713v19.999z"></path>
</symbol>
</defs>
</svg>
